<?xml version="1.0" encoding="UTF-8"?>
<svg height="48" viewBox="0 0 48 48" width="48" xmlns="http://www.w3.org/2000/svg" xmlns:xlink="http://www.w3.org/1999/xlink">
  <!-- <linearGradient gradientUnits="userSpaceOnUse" id="a" x1="7.11219318" x2="36.343287085" y1="10.873352985" y2="27.038573315">
    <stop offset="0" stop-color="#9feded"/>
    <stop offset="1" stop-color="#76c4c4"/>
  </linearGradient>
  <linearGradient gradientUnits="userSpaceOnUse" id="b" x1="44.486668755" x2="7.23373619" y1="23.81768355" y2="37.18741465">
    <stop offset="0" stop-color="#00cdcd"/>
    <stop offset="1" stop-color="#23f0f0"/>
  </linearGradient> -->
  <path d="m37.642101 18.712883h-13.513887l-18.2270807 12.747797c-.8765612.613056-1.0934585 1.818891-.4855625 2.698862l4.1453461 6.00094c.6226631.901246 1.8664191 1.110663 2.7497871.463082l15.463798-11.336447h9.867599c.257905 0 .505256-.10242.687564-.284767l4.31478-4.31478c.379693-.379707.379693-.995433 0-1.37514l-4.31478-4.31478c-.182308-.182308-.429659-.284767-.687564-.284767z" fill="#ffffff"/>
  <path d="m37.642101 29.287117h-13.513887l-18.2270807-12.747797c-.8765612-.613056-1.0934585-1.818891-.4855625-2.698862l4.1453461-6.0009401c.6226631-.9012456 1.8664191-1.1106624 2.7497871-.4630818l15.463798 11.3364469h9.867599c.257905 0 .505256.10242.687564.284767l4.31478 4.31478c.379693.379707.379693.995433 0 1.37514l-4.31478 4.31478c-.182308.182308-.429659.284767-.687564.284767z" fill="#ffffff"/>
</svg>